<?xml version="1.0" standalone="no"?>
<!DOCTYPE svg PUBLIC "-//W3C//DTD SVG 20010904//EN"
 "http://www.w3.org/TR/2001/REC-SVG-20010904/DTD/svg10.dtd">
<svg version="1.0" xmlns="http://www.w3.org/2000/svg"
 width="1024.000000pt" height="1024.000000pt" viewBox="0 0 1024.000000 1024.000000"
 preserveAspectRatio="xMidYMid meet">

<g transform="translate(0.000000,1024.000000) scale(0.100000,-0.100000)"
fill="#000000" stroke="none">
<path d="M3245 8884 c-116 -28 -201 -80 -305 -184 -105 -104 -164 -201 -197
-321 -17 -60 -18 -241 -18 -3259 0 -3018 1 -3199 18 -3259 51 -186 196 -364
368 -453 141 -73 6 -68 2011 -68 1995 0 1862 -4 2003 65 76 38 175 119 237
193 50 62 113 184 135 263 17 60 18 241 18 3259 0 3018 -1 3199 -18 3259 -51
186 -196 364 -368 453 -141 73 -5 68 -2016 67 -1542 -1 -1817 -3 -1868 -15z
m3595 -3764 l0 -2400 -1720 0 -1720 0 0 2400 0 2400 1720 0 1720 0 0 -2400z"/>
<path d="M5020 6934 c-340 -40 -555 -137 -762 -346 -209 -212 -317 -453 -342
-765 l-6 -73 304 0 305 0 6 48 c12 86 35 164 67 224 65 121 202 241 333 290
51 19 80 22 195 22 115 0 144 -3 195 -22 85 -32 177 -95 244 -168 107 -117
154 -239 154 -399 0 -107 -28 -199 -87 -288 -63 -94 -193 -216 -327 -307 -142
-96 -226 -177 -303 -294 -114 -171 -176 -370 -176 -568 l0 -68 305 0 305 0 0
38 c0 99 68 254 172 393 34 46 159 181 278 299 220 219 286 302 358 445 98
196 113 415 46 672 -111 427 -484 771 -920 848 -85 15 -285 26 -344 19z"/>
<path d="M4810 3605 l0 -305 310 0 310 0 0 305 0 305 -310 0 -310 0 0 -305z"/>
</g>
</svg>
